# xmcd
#
# Track frame offsets:
#	150
#	14775
#	31875
#	42150
#	57900
#	75750
#	91950
#	107400
#	126450
#	142050
#	156375
#	166275
#	183150
#	197850
#	215475
#	231675
#	243300
#	248925
#	262575
#	283500
#
# Disc length: 4030 seconds
#
# Revision: 0
# Processed by: cddbd v1.5.2PL0 Copyright (c) Steve Scherf et al.
# Submitted via: EasyCDDAExtractor 8.0.1.1
#
DISCID=180fbc14
DTITLE=Bernreuther - Go BaBe
DYEAR=1998
DGENRE=luesBlues
TTITLE0=Before he was born
TTITLE1=Fee fi fo fum, I do it just for fun
TTITLE2=My love and me don't agree
TTITLE3=Would you sign such a contract son?
TTITLE4=I blew my top
TTITLE5=Prison farm
TTITLE6=A nice little bullet
TTITLE7=Too late
TTITLE8=Freight train smoking through the desert
TTITLE9=Gues who is he
TTITLE10=Oily tears on gasoline feel
TTITLE11=At the station
TTITLE12=Blues gonny kill me dead
TTITLE13=Some call me hobo
TTITLE14=Alabama bound
TTITLE15=Nuclear freak
TTITLE16=Stalker blues
TTITLE17=Time for a change
TTITLE18=They are coming to take me away
TTITLE19=He was a friend of mine
EXTD=
EXTT0=
EXTT1=
EXTT2=
EXTT3=
EXTT4=
EXTT5=
EXTT6=
EXTT7=
EXTT8=
EXTT9=
EXTT10=
EXTT11=
EXTT12=
EXTT13=
EXTT14=
EXTT15=
EXTT16=
EXTT17=
EXTT18=
EXTT19=
PLAYORDER=
